<?xml version="1.0" encoding="utf-8"?>
<!-- Generator: Adobe Illustrator 27.7.0, SVG Export Plug-In . SVG Version: 6.00 Build 0)  -->
<svg version="1.1" id="Layer_1" xmlns="http://www.w3.org/2000/svg" xmlns:xlink="http://www.w3.org/1999/xlink" x="0px" y="0px"
	 viewBox="0 0 19.84 19.84" style="enable-background:new 0 0 19.84 19.84;" xml:space="preserve">
<style type="text/css">
	.st0{fill:#7184AD;}
	.st1{fill:none;stroke:#7184AD;stroke-width:2;stroke-miterlimit:10;}
	.st2{fill:none;stroke:#708437;stroke-miterlimit:10;}
</style>
<g>
	<circle class="st0" cx="3.21" cy="9.26" r="1"/>
	<path class="st1" d="M7.3,3.15c0.7-0.95,1.82-1.56,3.08-1.56c2.11,0,3.82,1.71,3.82,3.82"/>
	<path class="st2" d="M3.21,9.26"/>
	<path class="st1" d="M3.21,9.26l0.03-0.28c0.28-2.34,1.01-3.35,2.95-3.35h8.38c1.94,0,2.88,1.11,3.1,3.32l0.4,5.81
		c0,1.94-1.57,3.51-3.51,3.51H6.18c-1.94,0-3.51-1.57-3.51-3.51l0.09-0.95"/>
	<circle class="st0" cx="13.08" cy="9.26" r="1.3"/>
	<circle class="st0" cx="7.86" cy="9.26" r="1.3"/>
	<circle class="st0" cx="2.77" cy="13.8" r="1"/>
	<circle class="st0" cx="7.3" cy="3.15" r="1"/>
</g>
</svg>
