<?xml version="1.0" encoding="utf-8"?>
<!-- Generator: Adobe Illustrator 27.7.0, SVG Export Plug-In . SVG Version: 6.00 Build 0)  -->
<svg version="1.1" id="Layer_1" xmlns="http://www.w3.org/2000/svg" xmlns:xlink="http://www.w3.org/1999/xlink" x="0px" y="0px"
	 viewBox="0 0 19.84 19.84" style="enable-background:new 0 0 19.84 19.84;" xml:space="preserve">
<style type="text/css">
	.st0{opacity:0.51;fill:none;stroke:#7083AC;stroke-width:1.75;stroke-miterlimit:10;}
	.st1{opacity:0.51;fill:#7083AC;}
</style>
<g>
	<path class="st0" d="M18.34,13.83L18.34,13.83c0,2.49-2.02,4.5-4.5,4.5H6.03c-2.49,0-4.5-2.02-4.5-4.5V6.02
		c0-2.49,2.02-4.5,4.5-4.5h7.81c2.49,0,4.5,2.02,4.5,4.5v2.59"/>
	<path class="st1" d="M5.9,15.1L5.9,15.1c-0.49,0-0.89-0.4-0.89-0.89V6.86c0-0.49,0.4-0.89,0.89-0.89h0c0.49,0,0.89,0.4,0.89,0.89
		v7.35C6.79,14.7,6.39,15.1,5.9,15.1z"/>
	<path class="st1" d="M13.59,15.1L13.59,15.1c-0.49,0-0.89-0.4-0.89-0.89v-3.12c0-0.49,0.4-0.89,0.89-0.89h0
		c0.49,0,0.89,0.4,0.89,0.89v3.12C14.48,14.7,14.08,15.1,13.59,15.1z"/>
	<path class="st1" d="M9.93,15.1L9.93,15.1c-0.49,0-0.89-0.4-0.89-0.89V5.63c0-0.49,0.4-0.89,0.89-0.89h0c0.49,0,0.89,0.4,0.89,0.89
		v8.58C10.82,14.7,10.42,15.1,9.93,15.1z"/>
	<path class="st1" d="M19.22,13.83c0-0.48-0.39-0.88-0.88-0.88c-0.48,0-0.88,0.39-0.88,0.88H19.22z"/>
	<path class="st1" d="M17.47,8.61c0,0.48,0.39,0.88,0.88,0.88c0.48,0,0.88-0.39,0.88-0.88H17.47z"/>
</g>
</svg>
