<?xml version="1.0" encoding="utf-8"?>
<!-- Generator: Adobe Illustrator 27.7.0, SVG Export Plug-In . SVG Version: 6.00 Build 0)  -->
<svg version="1.1" id="Layer_1" xmlns="http://www.w3.org/2000/svg" xmlns:xlink="http://www.w3.org/1999/xlink" x="0px" y="0px"
	 viewBox="0 0 19.84 19.84" style="enable-background:new 0 0 19.84 19.84;" xml:space="preserve">
<style type="text/css">
	.st0{opacity:0.51;fill:#7184AD;}
</style>
<path class="st0" d="M18.85,13.8c0,0.28-0.12,0.57-0.35,0.8l-3.07,3.08c-0.06,0.43-0.43,0.77-0.88,0.77c-0.49,0-0.89-0.4-0.89-0.89
	V4.6c0-0.49,0.4-0.89,0.89-0.89s0.89,0.4,0.89,0.89v10.55l1.81-1.8c0.41-0.42,1.03-0.47,1.38-0.13
	C18.78,13.37,18.85,13.58,18.85,13.8z"/>
<path class="st0" d="M10.06,12.9L10.06,12.9c0.35-0.35,0.91-0.35,1.26,0l1.72,1.72c0.35,0.35,0.35,0.91,0,1.26l0,0
	c-0.35,0.35-0.91,0.35-1.26,0l-1.72-1.72C9.72,13.81,9.72,13.24,10.06,12.9z"/>
<path class="st0" d="M10.04,6.05c0,0.22-0.08,0.43-0.23,0.58C9.46,6.98,8.85,6.92,8.43,6.51L6.63,4.7v10.56
	c0,0.49-0.4,0.88-0.89,0.88s-0.89-0.39-0.89-0.88V2.29c0-0.49,0.4-0.89,0.89-0.89c0.46,0,0.83,0.35,0.88,0.79l3.07,3.06
	C9.92,5.48,10.04,5.78,10.04,6.05z"/>
<path class="st0" d="M1.25,6.95L1.25,6.95c0.35,0.35,0.91,0.35,1.26,0l1.72-1.72c0.35-0.35,0.35-0.91,0-1.26l0,0
	c-0.35-0.35-0.91-0.35-1.26,0L1.25,5.69C0.9,6.04,0.9,6.6,1.25,6.95z"/>
</svg>
