<?xml version="1.0" encoding="utf-8"?>
<!-- Generator: Adobe Illustrator 27.7.0, SVG Export Plug-In . SVG Version: 6.00 Build 0)  -->
<svg version="1.1" id="Layer_1" xmlns="http://www.w3.org/2000/svg" xmlns:xlink="http://www.w3.org/1999/xlink" x="0px" y="0px"
	 viewBox="0 0 70.87 70.87" style="enable-background:new 0 0 70.87 70.87;" xml:space="preserve">
<style type="text/css">
	.st0{opacity:0.51;fill:none;stroke:#7083AC;stroke-width:1.75;stroke-miterlimit:10;}
	.st1{opacity:0.513;fill:none;stroke:#7083AC;stroke-width:1.75;stroke-miterlimit:10;}
	.st2{opacity:0.51;fill:#7083AC;}
</style>
<g>
	<path class="st0" d="M41.6,43.74h-2.43c-1.25,0-2.27-1.02-2.27-2.27v-2.43c0-1.25,1.02-2.27,2.27-2.27h2.43
		c1.25,0,2.27,1.02,2.27,2.27v2.43C43.87,42.72,42.85,43.74,41.6,43.74z"/>
	<path class="st1" d="M31.7,34.1h-2.43c-1.25,0-2.27-1.02-2.27-2.27V29.4c0-1.25,1.02-2.27,2.27-2.27h2.43
		c1.25,0,2.27,1.02,2.27,2.27v2.43C33.97,33.09,32.95,34.1,31.7,34.1z"/>
	<path class="st0" d="M33.97,36.64l0,2.27v2.43c0,1.25-1.02,2.27-2.27,2.27h-2.43c-1.25,0-2.27-1.02-2.27-2.27v-2.43
		c0-1.25,1.02-2.27,2.27-2.27h1.21"/>
	<path class="st2" d="M33.1,36.64c0-0.48,0.39-0.88,0.88-0.88s0.88,0.39,0.88,0.88"/>
	<path class="st2" d="M30.49,35.76c0.48,0,0.88,0.39,0.88,0.88s-0.39,0.88-0.88,0.88"/>
	<path class="st0" d="M36.89,34.1l0-2.27V29.4c0-1.25,1.02-2.27,2.27-2.27h2.43c1.25,0,2.27,1.02,2.27,2.27v2.43
		c0,1.25-1.02,2.27-2.27,2.27h-1.21"/>
	<path class="st2" d="M37.77,34.1c0,0.48-0.39,0.88-0.88,0.88c-0.48,0-0.88-0.39-0.88-0.88"/>
	<path class="st2" d="M40.38,34.98c-0.48,0-0.88-0.39-0.88-0.88s0.39-0.88,0.88-0.88"/>
</g>
</svg>
