<?xml version="1.0" encoding="utf-8"?>
<!-- Generator: Adobe Illustrator 27.7.0, SVG Export Plug-In . SVG Version: 6.00 Build 0)  -->
<svg version="1.1" id="Layer_1" xmlns="http://www.w3.org/2000/svg" xmlns:xlink="http://www.w3.org/1999/xlink" x="0px" y="0px"
	 viewBox="0 0 19.84 19.84" style="enable-background:new 0 0 19.84 19.84;" xml:space="preserve">
<style type="text/css">
	.st0{opacity:0.51;fill:none;stroke:#7083AC;stroke-width:1.75;stroke-miterlimit:10;}
	.st1{opacity:0.513;fill:none;stroke:#7083AC;stroke-width:1.75;stroke-miterlimit:10;}
	.st2{opacity:0.51;fill:#7083AC;}
</style>
<g>
	<path class="st0" d="M16.08,18.22h-2.43c-1.25,0-2.27-1.02-2.27-2.27v-2.43c0-1.25,1.02-2.27,2.27-2.27h2.43
		c1.25,0,2.27,1.02,2.27,2.27v2.43C18.36,17.21,17.34,18.22,16.08,18.22z"/>
	<path class="st1" d="M6.19,8.59H3.76c-1.25,0-2.27-1.02-2.27-2.27V3.89c0-1.25,1.02-2.27,2.27-2.27h2.43
		c1.25,0,2.27,1.02,2.27,2.27v2.43C8.46,7.57,7.44,8.59,6.19,8.59z"/>
	<path class="st0" d="M8.46,11.13l0,2.27v2.43c0,1.25-1.02,2.27-2.27,2.27H3.76c-1.25,0-2.27-1.02-2.27-2.27V13.4
		c0-1.25,1.02-2.27,2.27-2.27h1.21"/>
	<path class="st2" d="M7.59,11.13c0-0.48,0.39-0.88,0.87-0.88c0.48,0,0.88,0.39,0.88,0.88"/>
	<path class="st2" d="M4.97,10.25c0.48,0,0.88,0.39,0.88,0.88c0,0.48-0.39,0.88-0.88,0.88"/>
	<path class="st0" d="M11.38,8.59l0-2.27V3.89c0-1.25,1.02-2.27,2.27-2.27h2.43c1.25,0,2.27,1.02,2.27,2.27v2.43
		c0,1.25-1.02,2.27-2.27,2.27h-1.21"/>
	<path class="st2" d="M12.26,8.59c0,0.48-0.39,0.88-0.88,0.88c-0.48,0-0.88-0.39-0.88-0.88"/>
	<path class="st2" d="M14.87,9.47c-0.48,0-0.88-0.39-0.88-0.88c0-0.48,0.39-0.88,0.88-0.88"/>
</g>
</svg>
