<?xml version="1.0" encoding="utf-8"?>
<!-- Generator: Adobe Illustrator 27.7.0, SVG Export Plug-In . SVG Version: 6.00 Build 0)  -->
<svg version="1.1" id="Layer_1" xmlns="http://www.w3.org/2000/svg" xmlns:xlink="http://www.w3.org/1999/xlink" x="0px" y="0px"
	 viewBox="0 0 19.84 19.84" style="enable-background:new 0 0 19.84 19.84;" xml:space="preserve">
<style type="text/css">
	.st0{fill:none;stroke:#010101;stroke-width:2;stroke-miterlimit:10;}
	.st1{fill:none;stroke:#7184AD;stroke-width:2;stroke-miterlimit:10;}
	.st2{fill:#7184AD;}
</style>
<g>
	<path class="st0" d="M18.18,6.71"/>
	<path class="st1" d="M9.92,17.37c0,0-8.38-3.82-8.38-10.65"/>
	<path class="st1" d="M18.3,6.71c0,3.76-2.54,6.61-4.83,8.41"/>
	<path class="st1" d="M18.3,6.71c0-2.89-2.34-5.24-5.24-5.24c-1.18,0-2.27,0.39-3.15,1.05C9.05,1.87,7.96,1.48,6.78,1.48
		c-2.89,0-5.24,2.34-5.24,5.24"/>
	<circle class="st2" cx="9.92" cy="17.37" r="1"/>
	<path class="st2" d="M14.1,15.91c-0.43,0.34-1.06,0.27-1.4-0.17c-0.34-0.43-0.27-1.06,0.17-1.4"/>
	<path class="st0" d="M15.06,7.93"/>
	<path class="st1" d="M15.13,7.93c0-1.46-0.96-2.69-2.28-3.11"/>
	<circle class="st2" cx="12.85" cy="4.82" r="1"/>
	<path class="st2" d="M16.13,7.93c0,0.55-0.45,1-1,1c-0.55,0-1-0.45-1-1"/>
</g>
</svg>
