<?xml version="1.0" encoding="utf-8"?>
<!-- Generator: Adobe Illustrator 27.7.0, SVG Export Plug-In . SVG Version: 6.00 Build 0)  -->
<svg version="1.1" id="Layer_1" xmlns="http://www.w3.org/2000/svg" xmlns:xlink="http://www.w3.org/1999/xlink" x="0px" y="0px"
	 viewBox="0 0 19.84 19.84" style="enable-background:new 0 0 19.84 19.84;" xml:space="preserve">
<style type="text/css">
	.st0{opacity:0.51;fill:#7184AD;}
	.st1{opacity:0.51;fill:none;stroke:#7184AD;stroke-width:2;stroke-miterlimit:10;}
</style>
<path class="st0" d="M11.18,6.36c0,0.49-0.39,0.89-0.88,0.89H2.67c-0.49,0-0.88-0.4-0.88-0.89s0.39-0.89,0.88-0.89h7.63
	C10.79,5.47,11.18,5.87,11.18,6.36z"/>
<path class="st1" d="M9.92,18.09H6.11c-2.39,0-4.33-1.94-4.33-4.33V6.14c0-2.39,1.94-4.33,4.33-4.33h7.62
	c2.39,0,4.33,1.94,4.33,4.33v7.62c0,2.39-1.94,4.33-4.33,4.33"/>
<path class="st1" d="M9.92,18.09"/>
<path class="st1" d="M13.73,18.09"/>
<circle class="st0" cx="15.16" cy="9.95" r="1.03"/>
<path class="st1" d="M15.64,12.61c-0.16,0.03-0.32,0.04-0.48,0.04c-1.49,0-2.7-1.21-2.7-2.7s1.21-2.7,2.7-2.7h2.9"/>
<circle class="st0" cx="15.64" cy="12.61" r="1"/>
<path class="st0" d="M13.73,19.09c-0.55,0-1-0.45-1-1c0-0.55,0.45-1,1-1"/>
<path class="st0" d="M9.92,17.09c0.55,0,1,0.45,1,1c0,0.55-0.45,1-1,1"/>
</svg>
